<svg version="1.1" id="Layer_1" xmlns="http://www.w3.org/2000/svg" xmlns:xlink="http://www.w3.org/1999/xlink" x="0px" y="0px"
	 width="100%" viewBox="0 0 128 128" enable-background="new 0 0 128 128" xml:space="preserve">
<path fill="#050507" opacity="1.000000" stroke="none" 
	d="
M88.000000,129.000000 
	C58.666668,129.000000 29.833334,129.000000 1.000000,129.000000 
	C1.000000,86.333336 1.000000,43.666668 1.000000,1.000000 
	C43.666668,1.000000 86.333336,1.000000 129.000000,1.000000 
	C129.000000,43.666668 129.000000,86.333336 129.000000,129.000000 
	C115.500000,129.000000 102.000000,129.000000 88.000000,129.000000 
M11.867389,70.012794 
	C18.185062,69.605621 25.229040,74.352577 30.215784,67.309212 
	C31.261692,69.034744 32.173111,70.538399 33.084530,72.042046 
	C34.510002,70.976425 35.935474,69.910805 37.365646,68.841667 
	C38.557251,70.281319 39.915802,71.922653 41.274349,73.563995 
	C41.690762,73.427299 42.107174,73.290604 42.523586,73.153915 
	C42.981281,69.186249 43.438972,65.218582 44.030922,60.087051 
	C48.082272,66.244240 51.381237,71.564560 55.020103,76.641243 
	C56.529949,78.747673 58.766289,80.333359 60.672253,82.155861 
	C61.408859,79.631348 62.643612,77.136124 62.794014,74.577156 
	C63.379322,64.618568 63.238922,54.605740 64.123642,44.680405 
	C64.715912,38.035954 68.990761,33.427814 75.357452,31.273539 
	C79.331390,29.928890 83.338791,30.234226 86.555450,33.358482 
	C89.833290,36.542156 91.068230,40.681774 89.385643,44.801380 
	C87.849739,48.561821 85.295769,51.950043 82.914505,55.306519 
	C81.288376,57.598610 79.187943,59.554222 77.299576,61.660275 
	C80.852287,61.927315 83.703773,61.105247 86.613228,60.676609 
	C93.173973,59.710037 99.765732,58.225231 106.340622,58.246780 
	C117.408653,58.283054 120.793587,64.641769 115.603416,74.500092 
	C111.259689,82.750656 104.176895,87.849525 95.607826,90.882935 
	C83.989685,94.995682 71.971970,95.349182 60.141666,92.477936 
	C50.159805,90.055298 40.496555,86.338173 30.625093,83.421387 
	C29.247648,83.014389 27.485777,83.908432 25.901865,84.200211 
	C26.584307,85.162048 27.051926,86.583229 27.980989,87.017723 
	C45.698452,95.303665 64.083298,101.036255 83.917313,98.955826 
	C98.156448,97.462257 110.628227,91.769135 119.392525,79.931229 
	C123.630844,74.206551 125.626114,67.454399 122.355591,60.650097 
	C119.181412,54.046242 112.491104,53.186596 106.068451,53.043385 
	C101.953979,52.951633 97.813721,53.782516 93.694267,54.276749 
	C92.295242,54.444592 90.924477,54.847847 88.932549,55.273506 
	C92.756180,50.033230 95.873596,45.241047 94.599976,39.130375 
	C92.361198,28.388857 79.819695,22.896450 70.217491,28.521563 
	C62.415813,33.091900 58.699490,40.306988 57.984734,49.129513 
	C57.460453,55.600811 57.171467,62.091171 56.716877,69.572693 
	C52.561119,63.088768 49.171265,57.551552 45.492767,52.213234 
	C44.402370,50.630829 42.499352,49.608376 40.968700,48.329334 
	C40.357151,50.282837 39.517059,52.200085 39.199734,54.200264 
	C38.895599,56.117294 39.134060,58.120407 39.134060,60.278309 
	C37.790550,59.691669 36.869873,59.289658 35.832161,58.836544 
	C35.099556,61.088902 34.503059,62.922817 33.848804,64.934303 
	C32.813728,62.795025 31.946987,61.003654 30.675766,58.376316 
	C29.361944,60.361992 28.317184,61.335537 28.017073,62.500854 
	C26.807478,67.197670 23.950323,68.177452 19.473928,67.272812 
	C16.761692,66.724686 13.840888,67.208595 10.310939,67.309853 
	C10.544963,68.138397 10.778986,68.966934 11.867389,70.012794 
z"/>
<path fill="#ED9B06" opacity="1.000000" stroke="none" 
	d="
M11.013787,67.228844 
	C13.840888,67.208595 16.761692,66.724686 19.473928,67.272812 
	C23.950323,68.177452 26.807478,67.197670 28.017073,62.500854 
	C28.317184,61.335537 29.361944,60.361992 30.675766,58.376316 
	C31.946987,61.003654 32.813728,62.795025 33.848804,64.934303 
	C34.503059,62.922817 35.099556,61.088902 35.832161,58.836544 
	C36.869873,59.289658 37.790550,59.691669 39.134060,60.278309 
	C39.134060,58.120407 38.895599,56.117294 39.199734,54.200264 
	C39.517059,52.200085 40.357151,50.282837 40.968700,48.329334 
	C42.499352,49.608376 44.402370,50.630829 45.492767,52.213234 
	C49.171265,57.551552 52.561119,63.088768 56.716877,69.572693 
	C57.171467,62.091171 57.460453,55.600811 57.984734,49.129513 
	C58.699490,40.306988 62.415813,33.091900 70.217491,28.521563 
	C79.819695,22.896450 92.361198,28.388857 94.599976,39.130375 
	C95.873596,45.241047 92.756180,50.033230 88.932549,55.273506 
	C90.924477,54.847847 92.295242,54.444592 93.694267,54.276749 
	C97.813721,53.782516 101.953979,52.951633 106.068451,53.043385 
	C112.491104,53.186596 119.181412,54.046242 122.355591,60.650097 
	C125.626114,67.454399 123.630844,74.206551 119.392525,79.931229 
	C110.628227,91.769135 98.156448,97.462257 83.917313,98.955826 
	C64.083298,101.036255 45.698452,95.303665 27.980989,87.017723 
	C27.051926,86.583229 26.584307,85.162048 25.901863,84.200211 
	C27.485777,83.908432 29.247648,83.014389 30.625093,83.421387 
	C40.496555,86.338173 50.159805,90.055298 60.141666,92.477936 
	C71.971970,95.349182 83.989685,94.995682 95.607826,90.882935 
	C104.176895,87.849525 111.259689,82.750656 115.603416,74.500092 
	C120.793587,64.641769 117.408653,58.283054 106.340622,58.246780 
	C99.765732,58.225231 93.173973,59.710037 86.613228,60.676609 
	C83.703773,61.105247 80.852287,61.927315 77.299576,61.660275 
	C79.187943,59.554222 81.288376,57.598610 82.914505,55.306519 
	C85.295769,51.950043 87.849739,48.561821 89.385643,44.801380 
	C91.068230,40.681774 89.833290,36.542156 86.555450,33.358482 
	C83.338791,30.234226 79.331390,29.928890 75.357452,31.273539 
	C68.990761,33.427814 64.715912,38.035954 64.123642,44.680405 
	C63.238922,54.605740 63.379322,64.618568 62.794014,74.577156 
	C62.643612,77.136124 61.408859,79.631348 60.672253,82.155861 
	C58.766289,80.333359 56.529949,78.747673 55.020103,76.641243 
	C51.381237,71.564560 48.082272,66.244240 44.030922,60.087051 
	C43.438972,65.218582 42.981281,69.186249 42.523586,73.153915 
	C42.107174,73.290604 41.690762,73.427299 41.274349,73.563995 
	C39.915802,71.922653 38.557251,70.281319 37.365646,68.841667 
	C35.935474,69.910805 34.510002,70.976425 33.084530,72.042046 
	C32.173111,70.538399 31.261692,69.034744 30.215784,67.309212 
	C25.229040,74.352577 18.185062,69.605621 11.434916,69.583344 
	C11.006226,68.512207 11.010006,67.870529 11.013787,67.228844 
z"/>
<path fill="#E29506" opacity="1.000000" stroke="none" 
	d="
M10.662363,67.269348 
	C11.010006,67.870529 11.006226,68.512207 11.007727,69.474686 
	C10.778986,68.966934 10.544963,68.138397 10.662363,67.269348 
z"/>
</svg>